<!-- Generated by IcoMoon.io -->
<svg version="1.1" xmlns="http://www.w3.org/2000/svg" width="54" height="32" viewBox="0 0 54 32">
<title>arrow</title>
<path fill="none" stroke="#002e8c" stroke-linejoin="miter" stroke-linecap="square" stroke-miterlimit="4" stroke-width="0.9231" d="M51.136 9.319c-16.986-0.466-28.076 0.383-33.269 2.549-7.789 3.248-3.296 9.201-1.338 10.448s4.878-2.273 2.198-3.029c-2.68-0.756-6.617 2.34-8.716 4.616-1.399 1.517-2.927 3.678-4.582 6.483"></path>
<path fill="#002e8c" d="M4.435 31.152c0.065 0.201 0.36 0.29 0.66 0.199l4.882-1.484c0.3-0.091 0.49-0.328 0.425-0.529s-0.36-0.29-0.66-0.199l-4.339 1.319-0.939-2.911c-0.065-0.201-0.36-0.29-0.66-0.199s-0.49 0.328-0.425 0.529l1.056 3.275z"></path>
</svg>
