<!-- Generated by IcoMoon.io -->
<svg version="1.1" xmlns="http://www.w3.org/2000/svg" width="34" height="32" viewBox="0 0 34 32">
<title>background1</title>
<path fill="#fff" d="M34.031 31.672c-1.185-0.361-2.048-0.555-2.589-0.584-0.811-0.042-5.915 0.584-6.912 0.584s-6.774 0.328-7.801 0.328c-1.027 0-5.807-0.538-6.81-0.538-0.669 0-3.953 0.179-9.853 0.538 0.44-4.576 0.66-7.194 0.66-7.855 0-0.991-0.628-4.373-0.66-5.864s0.493-8.356 0.493-9.816c0-0.973-0.105-3.654-0.315-8.041 5.161 0.518 8.15 0.776 8.968 0.776 1.227 0 5.083-0.956 6.047-0.999s10.517 0.223 11.758 0.223c0.827 0 3.225-0.141 7.194-0.423-0.232 4.277-0.349 6.931-0.349 7.963 0 1.547 0.363 8.155 0.349 9.474s-0.524 5.583-0.524 6.707c0 0.749 0.115 3.258 0.345 7.527z"></path>
</svg>
