<!-- Generated by IcoMoon.io -->
<svg version="1.1" xmlns="http://www.w3.org/2000/svg" width="62" height="32" viewBox="0 0 62 32">
<title>Background</title>
<path fill="#ffeef2" d="M0.323 0.328c4.8 0.416 7.69 0.638 8.669 0.666 1.469 0.042 7.879-0.456 9.686-0.456s11.118-0.538 12.978-0.538c1.86 0 16.656 0.538 18.474 0.538 1.212 0 5.112-0.179 11.701-0.538-0.796 4.576-1.194 7.195-1.194 7.856 0 0.991 1.136 4.373 1.194 5.864s-0.892 8.356-0.892 9.816c0 0.973 0.19 3.654 0.571 8.041-12.699-0.982-19.788-1.472-21.269-1.472-2.221 0-12.632 1.853-14.377 1.896s-10.379-1.421-12.626-1.421c-1.498 0-5.911 0.474-13.237 1.421 0.421-4.277 0.631-6.932 0.631-7.963 0-1.548-0.657-8.155-0.631-9.474s0.948-5.583 0.948-6.707c0-0.749-0.208-3.258-0.625-7.528z"></path>
</svg>
