<!-- Generated by IcoMoon.io -->
<svg version="1.1" xmlns="http://www.w3.org/2000/svg" width="95" height="32" viewBox="0 0 95 32">
<title>Logo</title>
<path fill="#ff6743" opacity="0.396676" d="M13.866 25.868c-7.124 0-12.898-5.791-12.898-12.934s5.775-12.934 12.898-12.934c7.123 0 12.898 5.791 12.898 12.934s-5.775 12.934-12.898 12.934z"></path>
<path fill="#ff6743" d="M22.972 32c-2.003 0-3.627-1.612-3.627-3.6s1.624-3.6 3.627-3.6c2.003 0 3.627 1.612 3.627 3.6s-1.624 3.6-3.627 3.6z"></path>
<path fill="#111237" d="M36.966 12.085c0-1.284 0.98-1.989 3.119-1.989 1.985 0 3.119 0.73 3.145 2.367h3.558c0-3.299-2.552-5.262-6.651-5.262-4.022 0-6.728 2.014-6.728 4.96 0 6.874 10.080 3.777 10.080 7.73 0 1.309-1.212 2.014-3.325 2.014-2.346 0-3.558-0.856-3.558-2.417h-3.557c0 3.424 2.552 5.313 6.935 5.313 4.202 0 7.038-1.888 7.038-4.91 0-7.126-10.054-4.029-10.054-7.805zM60.498 21.804c-0.284 0.101-0.412 0.126-0.644 0.126-0.361 0-0.593-0.252-0.593-0.755v-3.978c0-3.122-1.959-5.011-5.646-5.011-3.274 0-5.491 1.536-5.697 4.331h3.197c0.129-1.058 0.98-1.712 2.32-1.712 1.598 0 2.398 0.856 2.398 2.14v0.554h-1.624c-3.455 0-6.625 0.881-6.625 3.903 0 2.039 1.495 3.374 4.279 3.374 2.681 0 3.738-1.234 4.151-1.989h0.026c0.438 1.36 1.495 1.989 2.861 1.989 0.722 0 1.315-0.101 1.805-0.252l-0.206-2.719zM52.841 22.257c-1.212 0-1.83-0.453-1.83-1.259 0-1.083 1.108-1.611 2.99-1.611h1.83v0.781c0 0.982-1.134 2.090-2.99 2.090zM76.683 12.185c-2.088 0-3.454 1.083-4.099 2.568-0.593-1.536-1.933-2.568-3.97-2.568-1.753 0-2.99 0.781-3.712 1.914l-0.103-1.788h-3.403v12.338h3.532v-6.899c0-1.536 0.98-2.568 2.397-2.568 1.315 0 2.088 0.906 2.088 2.442v7.025h3.532v-6.899c0-1.536 0.98-2.568 2.397-2.568 1.289 0 2.088 0.881 2.088 2.442v7.025h3.558v-7.78c0-2.745-1.495-4.683-4.305-4.683zM94.905 21.804c-0.284 0.101-0.412 0.126-0.644 0.126-0.361 0-0.593-0.252-0.593-0.755v-3.978c0-3.122-1.959-5.011-5.646-5.011-3.274 0-5.491 1.536-5.697 4.331h3.197c0.129-1.058 0.98-1.712 2.32-1.712 1.599 0 2.398 0.856 2.398 2.14v0.554h-1.624c-3.454 0-6.625 0.881-6.625 3.903 0 2.039 1.495 3.374 4.279 3.374 2.681 0 3.738-1.234 4.151-1.989h0.026c0.438 1.36 1.495 1.989 2.861 1.989 0.722 0 1.315-0.101 1.804-0.252l-0.206-2.719zM87.248 22.257c-1.212 0-1.83-0.453-1.83-1.259 0-1.083 1.109-1.611 2.99-1.611h1.831v0.781c0 0.982-1.134 2.090-2.991 2.090z"></path>
</svg>
