<!-- Generated by IcoMoon.io -->
<svg version="1.1" xmlns="http://www.w3.org/2000/svg" width="28" height="32" viewBox="0 0 28 32">
<title>plane</title>
<path fill="none" stroke="#ffc8c8" stroke-linejoin="miter" stroke-linecap="round" stroke-miterlimit="4" stroke-width="0.9796" d="M11.803 17.070c-3.223 0.721-4.457 1.777-3.701 3.169 0.743 1.368 1.568 0.185 0.906-0.565s-2.152-0.242-3.611 1.608c-1.565 1.985-3.009 2.781-4.332 2.387"></path>
<path fill="#ffc8c8" stroke="#ffc8c8" stroke-linejoin="miter" stroke-linecap="butt" stroke-miterlimit="4" stroke-width="0.3265" d="M14.873 13.003l-3.61-1.963c-0.226-0.123-0.133-0.46 0.118-0.469l15.322-1.8c0.213-0.029 0.355 0.242 0.213 0.407l-7.314 10.421c-0.121 0.128-0.372 0.137-0.422-0.036l-2.816-4.586-2.644 1.374c-0.218 0.124-0.476-0.114-0.351-0.336l1.505-3.012zM15.275 12.64l9.119-3.089-8.818 0.731-3.347 0.702 1.388 1.035 1.658 0.622zM25.886 9.781c-1.090 0.524-2.255 1.124-3.496 1.799s-3.105 1.725-5.592 3.149l1.133 2.229 1.488 2.008 3.188-4.111 3.28-5.074zM16.424 14.673l9.777-5.51-7.367 2.635-3.426 1.302-0.807 1.093-0.421 1.342 2.244-0.862z"></path>
</svg>
