<svg width="179" height="104" viewBox="0 0 179 104" fill="none" xmlns="http://www.w3.org/2000/svg">
<path d="M12.4269 2.20904C11.8633 2.12879 11.2982 2.74165 11.1636 3.57758L8.97739 17.2021C8.84383 18.0384 9.19137 18.781 9.75489 18.8613C10.3194 18.9417 10.8846 18.3288 11.0191 17.4929L12.962 5.38208L21.127 6.54465C21.6905 6.62491 22.2567 6.01223 22.3902 5.17612C22.5248 4.34003 22.1762 3.5972 21.6127 3.51695L12.4269 2.20904ZM24.8636 27.6088L24.0322 28.6942C24.0476 28.7197 24.0642 28.7443 24.081 28.7678L24.8636 27.6088ZM53.5227 42.3276L52.7355 43.4802L52.7355 43.4803L53.5227 42.3276ZM54.0673 56.1375L53.2896 57.3035L53.2897 57.3037L54.0673 56.1375ZM80.1129 76.0566C80.6496 76.2629 81.2617 75.7702 81.4799 74.956C81.6981 74.1419 81.4398 73.3145 80.903 73.1082L80.1129 76.0566ZM11.2911 4.69058C13.0341 8.40931 18.0753 18.7898 24.0322 28.6942L25.694 26.5232C19.7993 16.7234 14.802 6.43295 13.0779 2.75525L11.2911 4.69058ZM54.31 41.175C53.2227 39.6195 51.9444 38.7133 50.7291 38.6504C50.1141 38.6187 49.4703 38.8039 48.8911 39.3152C48.2949 39.8417 47.8522 40.6406 47.6081 41.6042C47.1453 43.4311 47.417 45.7028 48.2795 48.1926C49.1638 50.7451 50.7597 53.7962 53.2896 57.3035L54.845 54.9715C52.3993 51.5807 50.9475 48.7524 50.182 46.5426C49.3947 44.27 49.4144 42.8959 49.5675 42.2914C49.6314 42.039 49.7136 41.9258 49.793 41.8556C49.8895 41.7705 50.072 41.6749 50.3678 41.6901C50.9741 41.7216 51.8554 42.2211 52.7355 43.4802L54.31 41.175ZM53.2897 57.3037C60.4074 67.171 70.6465 72.4179 80.1129 76.0566L80.903 73.1082C71.4873 69.4889 61.6271 64.3734 54.845 54.9714L53.2897 57.3037ZM24.081 28.7678C30.8389 38.2944 39.0314 43.3203 45.1101 45.3341C48.1285 46.3341 50.7172 46.6223 52.3916 46.2688C52.8169 46.1791 53.2269 46.0396 53.5898 45.8239C53.9367 45.6178 54.3563 45.2734 54.6564 44.6774C54.9995 43.9955 55.0591 43.2427 54.9366 42.6034C54.827 42.032 54.5791 41.56 54.31 41.175L52.7355 43.4803C52.9033 43.7202 52.9173 43.826 52.9084 43.7798C52.8865 43.6653 52.8855 43.3847 53.0205 43.1166C53.1123 42.9343 53.1762 42.9451 53.0334 43.03C52.9066 43.1054 52.6929 43.1925 52.3745 43.2597C51.0738 43.5343 48.7642 43.3329 45.8374 42.3633C40.0263 40.4381 32.1411 35.6043 25.6462 26.4498L24.081 28.7678Z" fill="#002E8C"/>
<path d="M97.5581 63.9038C98.7371 63.8006 99.7103 63.424 100.478 62.7742C101.267 62.0982 101.763 61.5329 101.966 61.0782C102.195 60.6455 102.267 59.9473 102.183 58.9838C102.114 58.1888 101.879 57.4447 101.479 56.7516C101.103 56.0563 100.691 55.6433 100.243 55.5126C99.9922 55.4132 99.6919 55.306 99.3424 55.191C99.7064 54.9164 100.067 54.6056 100.425 54.2587C101.344 52.8432 101.469 51.3636 100.801 49.8201C99.7416 47.4126 97.6231 46.336 94.445 46.5901C93.5066 46.6723 92.8962 46.7622 92.6138 46.8597C92.3335 46.9814 92.0067 47.2649 91.6335 47.7102C91.3041 48.1032 91.1092 48.5086 91.0488 48.9266C90.9862 49.3204 90.9527 50.1851 90.9482 51.5206C90.9518 52.3941 90.9967 53.3247 91.083 54.3124C91.1862 55.4928 91.3458 56.7653 91.5621 58.13C91.9254 60.6226 92.2583 62.0742 92.5608 62.4846C93.2162 63.3253 94.4337 63.8013 96.2132 63.9124C96.7008 63.9425 97.1491 63.9397 97.5581 63.9038ZM94.1246 54.9926C93.908 55.0116 93.6904 55.0185 93.4718 55.0134C93.3771 53.9294 93.2954 52.8563 93.2268 51.7943C93.1604 50.7563 93.2714 49.9456 93.5598 49.362C93.8786 48.8486 94.3989 48.5603 95.1208 48.4971C95.3854 48.4739 95.6653 48.4858 95.9603 48.5328C96.6728 48.6403 97.3091 48.9851 97.8691 49.5671C98.451 50.123 98.7694 50.7141 98.8241 51.3404C98.8822 52.282 98.3621 53.1286 97.2641 53.8802C96.326 54.5207 95.2795 54.8915 94.1246 54.9926ZM96.9856 61.5145C96.0954 61.5924 95.4331 61.5048 94.9988 61.2516C94.7173 61.082 94.5169 60.869 94.3975 60.6124C94.2781 60.3559 94.191 59.9144 94.1363 59.2881C94.0584 58.3968 94.1324 57.8563 94.3582 57.6666C94.5622 57.5031 95.2865 57.3304 96.5314 57.1485L96.8562 57.1201C97.6743 57.0484 98.3397 57.1722 98.8525 57.4914C99.4155 57.8304 99.7307 58.3854 99.798 59.1563L99.8044 59.2285C99.8507 59.7585 99.8341 60.1241 99.7547 60.3252C99.6753 60.5264 99.4385 60.7292 99.0442 60.9336C98.538 61.245 97.8518 61.4386 96.9856 61.5145ZM108.309 63.9452C109.055 63.8799 109.769 63.5868 110.451 63.0658C111.47 62.2483 112.185 61.1298 112.594 59.7103C112.82 58.9624 112.867 57.8416 112.737 56.3481C112.703 55.9626 112.655 55.5542 112.593 55.1226C112.336 53.0091 111.983 51.7534 111.537 51.3556C111.166 50.9997 110.836 50.8344 110.548 50.8597C110.355 50.8765 110.17 50.9777 109.992 51.1632C109.819 51.3969 109.873 52.715 110.156 55.1177C110.237 55.8009 110.3 56.3857 110.345 56.8723L110.38 57.2652C110.414 57.6956 110.432 58.0276 110.431 58.2613C110.431 58.8196 110.317 59.3151 110.088 59.7478C109.736 60.4341 109.332 60.9428 108.876 61.274C108.58 61.4941 108.299 61.6158 108.035 61.639C106.952 61.7338 106.14 59.7902 105.598 55.8082C105.48 55.0175 105.375 54.3713 105.283 53.8696C105.166 53.3701 105.035 52.981 104.89 52.7025C104.768 52.4218 104.631 52.2396 104.478 52.1559C104.304 52.0984 104.111 52.1153 103.901 52.2065C103.623 52.3523 103.448 52.7074 103.376 53.272C103.33 53.8586 103.369 54.8625 103.494 56.2838C103.702 58.6687 104.102 60.4664 104.692 61.6769C105.307 62.8853 106.158 63.6117 107.247 63.8562C107.618 63.9451 107.972 63.9747 108.309 63.9452ZM117.034 61.6153C117.588 61.5668 117.898 61.2362 117.966 60.6234C117.987 60.306 117.964 59.774 117.899 59.0272C117.842 58.3768 117.746 57.5478 117.609 56.5402C117.324 54.1135 117.078 52.5451 116.871 51.8351C116.765 51.456 116.529 51.2581 116.164 51.2416L116.056 51.2511C115.743 51.2785 115.468 51.4603 115.231 51.7967C115.018 52.1309 115.015 53.4905 115.223 55.8753L115.283 56.5619C115.499 58.7519 115.706 60.1538 115.906 60.7675C116.105 61.3812 116.481 61.6638 117.034 61.6153ZM123.029 61.7456C123.39 61.714 123.69 61.542 123.929 61.2298C124.173 60.9657 124.28 60.665 124.251 60.3278C124.244 60.2555 124.225 60.1723 124.192 60.078C124.058 59.6528 123.792 59.3848 123.395 59.274C122.923 59.1454 122.562 58.8979 122.312 58.5314C122.109 58.1608 121.945 57.5319 121.819 56.6448C121.669 55.7598 121.49 54.2584 121.28 52.1406C120.924 48.3366 120.6 46.3016 120.31 46.0357C120.018 45.7458 119.728 45.6134 119.439 45.6387C119.175 45.6619 118.961 45.8505 118.798 46.2047C118.599 46.7075 118.614 48.8181 118.842 52.5363L119.079 55.2464C119.262 57.3421 119.447 58.6246 119.633 59.0938C120.093 60.1944 120.804 60.9816 121.767 61.4556C122.247 61.6805 122.668 61.7772 123.029 61.7456ZM130.516 61.8908C131.021 61.8466 131.473 61.7463 131.871 61.59C132.34 61.4033 132.799 61.1082 133.249 60.7048C133.666 60.207 133.972 59.8282 134.168 59.5683C134.882 60.5253 135.51 60.9193 136.053 60.7504C136.622 60.6035 136.878 60.2048 136.821 59.5544C136.786 59.1448 136.632 58.6364 136.361 58.0291C136.011 57.3557 135.65 56.1373 135.278 54.3736C134.907 52.634 134.66 51.0536 134.536 49.6323C134.477 47.5742 134.161 46.1698 133.586 45.4191C133.278 45.2276 132.991 45.1313 132.724 45.1304C132.484 45.1515 132.251 45.2689 132.028 45.4827C131.782 45.7227 131.651 46.0255 131.634 46.3911C131.611 46.6843 131.604 46.8792 131.613 46.9755C131.597 47.074 131.606 47.3159 131.64 47.7014C131.687 47.9643 131.719 48.192 131.736 48.3848C131.731 48.6037 131.766 48.8676 131.841 49.1766C131.893 49.4876 131.917 49.7646 131.914 50.0076C131.933 50.2245 131.962 50.4161 132.001 50.5826C131.18 50.6302 130.553 50.6609 130.118 50.6748C128.812 50.7163 127.867 51.0054 127.284 51.5419C126.63 52.1089 126.144 52.7827 125.824 53.5632C125.506 54.3678 125.381 55.4346 125.449 56.7638C125.444 56.9827 125.451 57.2005 125.47 57.4174C125.527 58.0678 125.637 58.6407 125.802 59.136C126.005 59.7979 126.281 60.3198 126.63 60.702C127.059 61.1741 127.498 61.4876 127.948 61.6424C128.42 61.771 129.156 61.8643 130.155 61.9224L130.516 61.8908ZM130.177 59.2625C129.453 59.3017 128.879 59.1092 128.454 58.6852C128.031 58.2854 127.792 57.7723 127.737 57.1459L127.731 57.0737C127.634 55.4073 127.946 54.2633 128.668 53.6418C129.047 53.2687 129.537 53.0438 130.136 52.967L130.28 52.9544C130.81 52.908 131.245 53.0398 131.588 53.3496C131.994 53.5568 132.303 54.0395 132.514 54.7977C132.555 54.9883 132.584 55.18 132.601 55.3727C132.641 55.8304 132.63 56.2562 132.567 56.65C132.495 57.2146 132.4 57.6478 132.281 57.9495C132.122 58.3518 131.869 58.6531 131.523 58.8533C131.179 59.0776 130.73 59.214 130.177 59.2625ZM97.2967 82.9696C99.414 82.7842 100.451 81.8923 100.409 80.2939C100.42 80.1473 100.421 80.0137 100.41 79.8933C100.381 79.556 100.308 79.2832 100.193 79.0748C100.047 78.7963 99.7229 78.4121 99.2195 77.9221C98.3256 77.1266 97.4585 76.4986 96.6182 76.0382C95.6973 75.4877 95.2179 74.9957 95.18 74.5621C95.1337 74.0321 95.3626 73.5994 95.8667 73.2639C96.3467 72.9306 96.9529 72.7926 97.6852 72.8498C98.4176 72.907 98.8564 72.7957 99.0016 72.516C99.1469 72.2363 98.9788 71.8383 98.4973 71.3222C98.0461 70.8763 97.4225 70.676 96.6264 70.7215L96.446 70.7373C95.7001 70.8026 95.0192 71.0564 94.4032 71.4988C93.4693 72.1874 92.9708 73.1414 92.9076 74.3606C92.8685 75.5777 93.2875 76.4877 94.1645 77.0905C96.7453 78.8792 98.0451 79.882 98.0641 80.0988C98.0893 80.3878 97.8504 80.5666 97.3472 80.6349C96.8441 80.7033 96.1488 80.6549 95.2616 80.4899C94.1055 80.2999 93.4538 80.3327 93.3064 80.5883C93.1611 80.8681 93.111 81.1273 93.1561 81.3661C93.1898 81.7516 93.451 82.1049 93.9398 82.4262C94.7319 82.8909 95.8148 83.0752 97.1884 82.9791L97.2967 82.9696ZM106.464 81.9482C106.704 81.9271 106.955 81.8809 107.215 81.8095C107.758 81.6406 108.238 81.3073 108.655 80.8095C109.075 80.3359 109.231 79.9095 109.125 79.5304C109.087 79.3639 109.016 79.2487 108.913 79.1849C108.835 79.1189 108.675 79.0965 108.435 79.1176C108.216 79.1124 107.891 79.1409 107.46 79.2029C106.767 79.3122 106.308 79.3402 106.086 79.2869C105.887 79.2315 105.674 79.0195 105.448 78.6509C104.929 77.7012 104.545 76.6425 104.298 75.4747C105.131 75.3046 105.764 75.1885 106.195 75.1265C107.243 74.9133 107.96 74.6563 108.346 74.3555C108.596 74.1637 108.711 73.9594 108.692 73.7426C108.68 73.598 108.607 73.4588 108.474 73.3248C108.437 73.1823 108.295 73.0855 108.049 73.0343C107.824 72.957 107.518 72.9231 107.131 72.9327C106.741 72.9183 106.365 72.9148 106.002 72.9223C105.615 72.9319 105.205 72.9557 104.772 72.9937C104.337 73.0075 104.022 73.0108 103.827 73.0036C103.953 69.4486 103.619 67.7058 102.825 67.7754C102.681 67.788 102.507 67.8882 102.306 68.0758C101.764 68.5359 101.497 69.9186 101.504 72.224C101.517 72.9268 101.551 73.5913 101.606 74.2177C101.734 75.6871 101.992 76.9753 102.38 78.0822C102.932 79.6845 103.61 80.7782 104.412 81.3632C105.01 81.8207 105.694 82.0156 106.464 81.9482ZM112.852 81.1702C113.044 81.1533 113.197 81.1035 113.311 81.0207C113.493 80.8834 113.469 79.7689 113.237 77.6774C112.97 75.1763 113.101 73.4778 113.629 72.582C114.183 71.7081 115.214 71.4478 116.724 71.8011C118.308 72.1721 119.067 71.9721 118.999 71.2013C118.934 70.4545 118.196 69.9123 116.784 69.5748C116.19 69.4326 115.64 69.3837 115.135 69.4279C114.509 69.4827 113.932 69.6789 113.404 70.0165C112.826 70.3341 112.449 70.5978 112.273 70.8073C112.12 70.9907 111.862 70.9526 111.5 70.693C111.087 70.4136 110.73 70.3478 110.428 70.4957C110.22 70.611 110.115 70.9357 110.113 71.4699L110.166 72.0842C110.23 72.8069 110.366 73.948 110.575 75.5075C110.964 78.5804 111.234 80.2802 111.384 80.6069C111.503 80.8635 111.797 81.032 112.265 81.1124C112.487 81.1657 112.683 81.1849 112.852 81.1702ZM125.767 79.3471C126.296 79.3007 126.82 79.1941 127.339 79.0273C128.351 78.6717 129.141 78.1413 129.71 77.4361C130.474 76.471 130.848 75.2003 130.831 73.6239C130.836 73.405 130.83 73.1992 130.814 73.0065C130.702 71.7297 130.306 70.672 129.627 69.8334C128.678 68.6786 127.425 68.0723 125.868 68.0145C125.479 68 125.152 68.0044 124.887 68.0276C124.67 68.0465 124.503 68.0733 124.385 68.1079C124.054 68.2097 123.642 68.4886 123.149 68.9444C121.809 69.9842 120.953 71.285 120.58 72.8469C120.401 73.5666 120.339 74.2516 120.396 74.902C120.486 75.6467 120.705 76.3557 121.055 77.029C121.77 78.2772 122.866 79.0307 124.344 79.2897C124.811 79.3701 125.286 79.3892 125.767 79.3471ZM125.546 76.8177C124.752 76.8872 124.163 76.8053 123.779 76.5719C123.393 76.3145 123.11 75.8538 122.931 75.1898C122.888 74.9751 122.857 74.7593 122.838 74.5425C122.754 73.579 123.073 72.5193 123.797 71.3636C124.135 70.7999 124.625 70.4415 125.266 70.2882C125.385 70.2536 125.504 70.231 125.624 70.2205C126.105 70.1783 126.576 70.2948 127.037 70.5701C127.547 70.8652 127.934 71.4018 128.196 72.1799C128.326 72.5569 128.407 72.9381 128.441 73.3235C128.475 73.709 128.459 74.0866 128.395 74.4563C128.291 75.2179 128.013 75.7763 127.559 76.1316C127.107 76.511 126.436 76.7397 125.546 76.8177ZM142.018 78.6518C142.523 78.6076 142.784 78.2691 142.802 77.6365L142.767 77.239C142.704 76.5163 142.495 75.3695 142.139 73.7986C141.739 71.9888 141.334 70.6892 140.926 69.8997C140.541 69.108 140.001 68.4757 139.305 68.0026C138.712 67.5934 138.066 67.4193 137.368 67.4804C136.743 67.5352 136.072 67.7639 135.355 68.1665C133.228 69.3481 132.311 71.6131 132.603 74.9615C132.631 75.2747 132.671 75.5988 132.725 75.934C132.893 77.3029 133.12 78.2418 133.407 78.7507C133.696 79.2836 134.074 79.4447 134.541 79.234C134.843 79.0861 134.923 78.2052 134.782 76.5912C134.521 73.6041 134.87 71.6316 135.829 70.6738C136.92 69.5587 137.846 69.4776 138.608 70.4304C138.815 70.5821 139.222 71.9058 139.828 74.4015C140.456 76.871 140.838 78.1968 140.976 78.379C141.189 78.603 141.537 78.694 142.018 78.6518ZM148.883 84.1675C151.457 83.942 153.136 82.8968 153.919 81.032C154.243 80.2997 154.356 79.1004 154.259 77.434L154.205 76.8197C154.083 75.4225 153.85 74.1442 153.506 72.9849C153.167 71.8738 152.858 70.9784 152.581 70.2988C152.223 69.262 151.698 68.3856 151.005 67.6695C150.31 66.9294 149.667 66.5003 149.074 66.3822C148.53 66.26 148.006 66.221 147.5 66.2652C146.658 66.339 145.909 66.6473 145.254 67.1902C144.214 68.0581 143.528 69.2226 143.195 70.684C143.091 71.1543 143.059 71.6183 143.099 72.076C143.158 72.7505 143.373 73.4113 143.745 74.0584C144.371 75.1202 145.206 75.7995 146.25 76.0964C147.321 76.4153 148.476 76.1806 149.716 75.3923C150.244 75.0548 150.633 74.7901 150.883 74.5983C151.17 75.1072 151.408 75.8874 151.597 76.9389C151.762 77.9925 151.698 78.9206 151.404 79.723C151.15 80.4249 150.791 80.8933 150.327 81.1282C149.862 81.3631 149.264 81.4519 148.532 81.3947C148.02 81.3667 147.325 81.1848 146.447 80.849C145.602 80.6075 145.14 81.0121 145.062 82.0627C145.07 83.5427 146.344 84.2443 148.883 84.1675ZM147.652 73.8254C147.604 73.8296 147.555 73.8218 147.504 73.8019C147.141 73.8095 146.858 73.7614 146.655 73.6578C146.35 73.4904 146.111 73.2564 145.939 72.9559C145.741 72.6334 145.625 72.2674 145.589 71.8579C145.509 70.9425 145.794 70.1772 146.443 69.562C146.89 69.1344 147.278 68.8577 147.607 68.7319C147.723 68.6731 147.841 68.6385 147.961 68.628C148.154 68.6111 148.351 68.6424 148.552 68.7219C148.831 68.8674 149.103 69.2076 149.368 69.7427C149.615 70.3522 149.759 70.8858 149.799 71.3435C149.814 71.5121 149.815 71.6697 149.804 71.8164C149.752 72.3307 149.407 72.8221 148.769 73.2907C148.359 73.5936 147.987 73.7718 147.652 73.8254ZM160.913 76.3777C161.178 76.3545 161.369 76.3256 161.488 76.291C161.77 76.1934 162.088 75.9471 162.441 75.5521C162.837 75.0805 163.025 74.7363 163.006 74.5195C162.976 74.1823 162.114 74.0272 160.419 74.0543C159.114 74.0958 158.234 74.0151 157.78 73.8122C157.302 73.6113 157 73.2129 156.875 72.617C156.798 72.284 156.816 72.076 156.93 71.9932C157.044 71.9104 157.451 71.8505 158.151 71.8135C159.99 71.7738 161.43 71.0529 162.471 69.6509C163.104 68.843 163.387 68.0657 163.322 67.3189C163.299 67.0539 163.227 66.7811 163.105 66.5004C162.784 65.8732 161.855 65.5176 160.321 65.4336C159.932 65.4191 159.556 65.4277 159.196 65.4593C158.209 65.5457 157.397 65.8232 156.759 66.2917C156.167 66.7319 155.659 67.4439 155.236 68.4277C154.813 69.4114 154.583 70.3904 154.547 71.3645C154.529 71.7059 154.532 72.0212 154.557 72.3103C154.801 75.1047 156.497 76.4733 159.644 76.4161C160.153 76.42 160.577 76.4072 160.913 76.3777ZM158.118 69.7773C157.781 69.8068 157.547 69.7666 157.417 69.6567C157.338 69.5908 157.295 69.5096 157.286 69.4133C157.278 69.3169 157.306 69.2174 157.369 69.1147C157.469 68.8633 157.675 68.5903 157.989 68.2958C158.438 67.8923 159.024 67.659 159.746 67.5957C160.468 67.5325 160.844 67.6816 160.876 68.0429C160.899 68.3079 160.578 68.6516 159.911 69.0741C159.269 69.4944 158.672 69.7288 158.118 69.7773ZM168.706 76.2777C168.899 76.2608 169.052 76.211 169.166 76.1282C169.348 75.9909 169.323 74.8765 169.092 72.7849C168.825 70.2838 168.955 68.5853 169.483 67.6895C170.037 66.8157 171.069 66.5554 172.579 66.9086C174.163 67.2796 174.921 67.0796 174.854 66.3088C174.789 65.562 174.05 65.0198 172.639 64.6823C172.045 64.5401 171.495 64.4912 170.989 64.5354C170.364 64.5902 169.787 64.7864 169.259 65.124C168.681 65.4416 168.304 65.7053 168.128 65.9148C167.974 66.0982 167.716 66.0601 167.354 65.8006C166.942 65.5211 166.585 65.4553 166.282 65.6032C166.074 65.7185 165.969 66.0432 165.967 66.5774L166.021 67.1917C166.084 67.9144 166.22 69.0555 166.429 70.615C166.819 73.6879 167.089 75.3877 167.239 75.7144C167.358 75.971 167.652 76.1395 168.119 76.2199C168.342 76.2732 168.538 76.2925 168.706 76.2777ZM99.2914 101.219C99.532 101.198 99.7825 101.152 100.043 101.08C100.586 100.911 101.066 100.578 101.483 100.08C101.902 99.6065 102.059 99.1801 101.953 98.801C101.914 98.6345 101.844 98.5193 101.741 98.4555C101.663 98.3895 101.503 98.3671 101.262 98.3882C101.044 98.383 100.719 98.4115 100.288 98.4735C99.5944 98.5828 99.1362 98.6108 98.9134 98.5575C98.7146 98.5021 98.5021 98.2901 98.2759 97.9215C97.7565 96.9718 97.3731 95.9131 97.1256 94.7453C97.9593 94.5752 98.5916 94.4591 99.0226 94.3971C100.071 94.1839 100.788 93.9269 101.174 93.6261C101.424 93.4343 101.539 93.23 101.52 93.0132C101.507 92.8687 101.435 92.7294 101.302 92.5954C101.265 92.453 101.123 92.3561 100.876 92.305C100.651 92.2276 100.345 92.1937 99.9583 92.2033C99.5691 92.1889 99.193 92.1854 98.83 92.1929C98.4429 92.2025 98.0328 92.2263 97.5997 92.2643C97.1645 92.2781 96.8496 92.2814 96.655 92.2742C96.7808 88.7192 96.4467 86.9765 95.6527 87.046C95.5083 87.0587 95.3352 87.1588 95.1334 87.3464C94.5917 87.8065 94.3246 89.1892 94.3321 91.4946C94.3451 92.1974 94.3789 92.8619 94.4336 93.4883C94.562 94.9577 94.8201 96.2459 95.2077 97.3528C95.7599 98.9551 96.4374 100.049 97.2401 100.634C97.8377 101.091 98.5215 101.286 99.2914 101.219ZM109.202 99.5497C109.467 99.5265 109.658 99.4976 109.776 99.463C110.059 99.3654 110.376 99.1191 110.73 98.724C111.125 98.2525 111.313 97.9083 111.294 97.6915C111.265 97.3542 110.403 97.1992 108.708 97.2262C107.402 97.2678 106.522 97.1871 106.068 96.9841C105.59 96.7833 105.289 96.3849 105.164 95.789C105.086 95.4559 105.104 95.248 105.218 95.1652C105.332 95.0824 105.739 95.0225 106.439 94.9854C108.278 94.9457 109.718 94.2248 110.76 92.8228C111.392 92.015 111.676 91.2376 111.611 90.4908C111.587 90.2259 111.515 89.953 111.394 89.6724C111.072 89.0452 110.144 88.6895 108.609 88.6055C108.22 88.5911 107.845 88.5996 107.484 88.6312C106.498 88.7177 105.685 88.9951 105.047 89.4637C104.456 89.9039 103.948 90.6159 103.525 91.5996C103.102 92.5834 102.872 93.5623 102.836 94.5364C102.817 94.8779 102.821 95.1932 102.846 95.4822C103.09 98.2766 104.785 99.6452 107.932 99.5881C108.442 99.592 108.865 99.5792 109.202 99.5497ZM106.407 92.9493C106.07 92.9788 105.836 92.9386 105.705 92.8287C105.627 92.7627 105.583 92.6816 105.575 92.5852C105.566 92.4889 105.594 92.3893 105.658 92.2867C105.757 92.0352 105.964 91.7623 106.277 91.4678C106.727 91.0643 107.313 90.8309 108.034 90.7677C108.756 90.7045 109.133 90.8535 109.164 91.2149C109.188 91.4798 108.866 91.8236 108.2 92.246C107.558 92.6664 106.96 92.9008 106.407 92.9493ZM118.113 100.59C118.618 100.545 119.315 100.339 120.204 99.9696C121.095 99.6245 121.607 99.3734 121.738 99.2162C122.098 98.8934 122.398 98.4423 122.638 97.863C122.925 97.2553 123.054 96.6493 123.025 96.045C123.043 95.9706 123.048 95.8973 123.042 95.825C122.99 95.2228 122.823 94.4242 122.542 93.4293C122.065 91.5777 121.5 90.2436 120.847 89.427C120.167 88.5883 119.197 88.1636 117.935 88.1527L117.321 88.2065C116.888 88.2444 116.518 88.3132 116.212 88.4129C115.763 88.5493 115.374 88.814 115.045 89.2069C114.65 89.6785 114.411 90.1363 114.328 90.5805C114.222 91.0267 114.265 91.375 114.456 91.6252C114.841 92.1498 115.37 91.9578 116.042 91.0493C116.46 90.5516 116.932 90.2675 117.459 90.197C118.012 90.1486 118.464 90.3274 118.815 90.7336C119.063 91.076 119.218 91.3174 119.278 91.4577C119.339 91.598 119.311 91.6975 119.195 91.7562C119.079 91.815 118.853 91.8591 118.516 91.8886C117.361 91.9897 116.324 92.6025 115.404 93.7269C114.508 94.8491 114.111 96.0005 114.214 97.1808C114.307 98.2408 114.721 99.0905 115.455 99.7301C116.192 100.394 117.078 100.68 118.113 100.59ZM117.826 98.1389C117.657 98.1536 117.511 98.1422 117.386 98.1046C116.987 97.9697 116.733 97.5671 116.626 96.8968L116.613 96.7522C116.588 96.4632 116.615 96.218 116.695 96.0169C116.818 95.7634 117.067 95.426 117.443 95.0047C118.064 94.3434 118.591 93.9939 119.024 93.9559C119.409 93.9222 119.72 94.1498 119.956 94.6389C120.187 95.0556 120.329 95.5772 120.384 96.2035C120.416 96.5648 120.355 96.8372 120.201 97.0206C120.047 97.2039 119.691 97.4293 119.133 97.6967C118.598 97.962 118.162 98.1094 117.826 98.1389ZM132.366 97.8483C132.919 97.7999 133.276 97.5745 133.434 97.1722C133.569 96.772 133.582 95.9456 133.472 94.6929C133.359 93.3921 133.37 92.2745 133.507 91.3401C133.619 90.4079 133.839 89.8667 134.165 89.7168C134.419 89.5732 134.808 89.7212 135.331 90.1608C135.852 90.5764 136.234 91.0648 136.477 91.6261C136.629 91.9769 136.907 92.9356 137.311 94.5024C137.883 96.6126 138.65 97.48 139.611 97.1045C140.009 96.9482 140.232 96.7224 140.279 96.427C140.297 96.3526 140.298 96.2311 140.284 96.0625C140.244 95.6048 140.063 94.7832 139.741 93.5977C139.337 92.031 138.946 90.8879 138.568 90.1685C138.269 89.5151 137.703 88.8608 136.869 88.2055C136.06 87.5482 135.374 87.1835 134.81 87.1115C134.272 87.0615 133.7 87.1723 133.093 87.4439C132.511 87.7134 132.105 88.0645 131.876 88.4972C131.665 88.8556 131.529 89.0981 131.467 89.2249C130.918 88.7633 130.511 88.4105 130.247 88.1666C129.746 87.7008 129.344 87.4082 129.043 87.289C128.744 87.1938 128.318 87.1705 127.764 87.2189C127.211 87.2674 126.807 87.3635 126.553 87.5071C126.277 87.6769 125.92 88.0359 125.483 88.5839C124.282 90.097 123.775 91.9255 123.962 94.0695C123.994 94.4308 124.052 94.8142 124.136 95.2195C124.335 96.3914 124.561 97.1727 124.813 97.5632C125.068 97.9779 125.408 98.1301 125.835 98.0199C126.122 97.9705 126.289 97.8102 126.338 97.5389C126.385 97.2435 126.403 96.4773 126.392 95.2403C126.343 93.5697 126.479 92.2106 126.8 91.163C127.215 89.8158 127.758 89.3677 128.428 89.8188C128.687 90.0145 129.064 90.7219 129.559 91.9408C130.079 93.1817 130.472 94.3489 130.738 95.4422C130.942 96.3953 131.156 97.044 131.38 97.3885C131.628 97.7309 131.957 97.8842 132.366 97.8483ZM145.835 97.3604C147.952 97.1749 148.989 96.283 148.947 94.6847C148.958 94.538 148.959 94.4045 148.948 94.284C148.919 93.9468 148.846 93.674 148.731 93.4656C148.585 93.1871 148.261 92.8028 147.757 92.3129C146.864 91.5173 145.997 90.8893 145.156 90.4289C144.235 89.8785 143.756 89.3864 143.718 88.9528C143.672 88.4229 143.901 87.9902 144.405 87.6547C144.885 87.3214 145.491 87.1833 146.223 87.2405C146.956 87.2978 147.394 87.1865 147.54 86.9068C147.685 86.627 147.517 86.2291 147.035 85.713C146.584 85.267 145.96 85.0668 145.164 85.1122L144.984 85.128C144.238 85.1934 143.557 85.4472 142.941 85.8895C142.007 86.5782 141.509 87.5321 141.446 88.7514C141.406 89.9685 141.825 90.8785 142.702 91.4813C145.283 93.27 146.583 94.2727 146.602 94.4895C146.627 94.7786 146.388 94.9573 145.885 95.0257C145.382 95.094 144.687 95.0457 143.8 94.8807C142.643 94.6906 141.992 94.7234 141.844 94.9791C141.699 95.2588 141.649 95.5181 141.694 95.7569C141.728 96.1423 141.989 96.4957 142.478 96.817C143.27 97.2816 144.353 97.4659 145.726 97.3699L145.835 97.3604Z" fill="#002E8C" stroke="#002E8C" stroke-width="0.6"/>
</svg>
