<svg xmlns="http://www.w3.org/2000/svg" width="179" height="104" fill="#002e8c" xmlns:v="https://vecta.io/nano"><path d="M12.427 2.209c-.564-.08-1.129.533-1.263 1.369L8.977 17.202c-.134.836.214 1.579.777 1.659s1.13-.532 1.264-1.368l1.943-12.111 8.165 1.163c.564.08 1.13-.532 1.263-1.369s-.214-1.579-.777-1.659l-9.186-1.308zm12.437 25.4l-.831 1.085.049.074.783-1.159zm28.659 14.719l-.787 1.153h0l.787-1.153zm.545 13.81l-.778 1.166h0l.778-1.166zm26.046 19.919c.537.206 1.149-.286 1.367-1.101s-.04-1.642-.577-1.848l-.79 2.948zM11.291 4.691c1.743 3.719 6.784 14.099 12.741 24.004l1.662-2.171c-5.895-9.8-10.892-20.09-12.616-23.768l-1.787 1.935zM54.31 41.175c-1.087-1.555-2.366-2.462-3.581-2.525-.615-.032-1.259.154-1.838.665-.596.527-1.039 1.325-1.283 2.289-.463 1.827-.191 4.099.671 6.588.884 2.553 2.48 5.604 5.01 9.111l1.555-2.332c-2.446-3.391-3.898-6.219-4.663-8.429-.787-2.273-.768-3.647-.614-4.251.064-.252.146-.366.225-.436.096-.085.279-.181.575-.166.606.032 1.488.531 2.368 1.79l1.575-2.305zm-1.02 16.129c7.118 9.867 17.357 15.114 26.823 18.753l.79-2.948c-9.416-3.619-19.276-8.735-26.058-18.137l-1.555 2.332zM24.081 28.768c6.758 9.527 14.95 14.553 21.029 16.566 3.018 1 5.607 1.288 7.281.935a3.92 3.92 0 0 0 1.198-.445c.347-.206.767-.55 1.067-1.147.343-.682.403-1.435.28-2.074-.11-.571-.358-1.043-.627-1.428l-1.575 2.305c.168.24.182.346.173.3a1.15 1.15 0 0 1 .112-.663c.092-.182.156-.172.013-.087-.127.075-.34.163-.659.23-1.301.275-3.61.073-6.537-.896-5.811-1.925-13.696-6.759-20.191-15.914l-1.565 2.318z"/><path d="M97.558 63.904c1.179-.103 2.152-.48 2.92-1.13.789-.676 1.285-1.241 1.488-1.696.229-.433.301-1.131.217-2.094-.069-.795-.304-1.539-.704-2.232-.376-.695-.788-1.108-1.236-1.239l-.901-.322c.364-.275.725-.585 1.083-.932.919-1.415 1.044-2.895.376-4.439-1.059-2.407-3.178-3.484-6.356-3.23-.938.082-1.549.172-1.831.27-.28.122-.607.405-.98.851-.329.393-.524.798-.585 1.216-.063.394-.096 1.258-.101 2.594l.135 2.792.479 3.818c.363 2.493.696 3.944.999 4.355.655.841 1.873 1.317 3.652 1.428.488.03.936.027 1.345-.009zm-3.433-8.911a5.89 5.89 0 0 1-.653.021l-.245-3.219c-.066-1.038.045-1.849.333-2.432.319-.513.839-.802 1.561-.865a3.43 3.43 0 0 1 .84.036c.712.108 1.349.452 1.909 1.034.582.556.9 1.147.955 1.773.058.942-.462 1.788-1.56 2.54-.938.64-1.985 1.011-3.139 1.112zm2.861 6.522c-.89.078-1.553-.01-1.987-.263-.282-.17-.482-.383-.601-.639s-.206-.698-.261-1.324c-.078-.891-.004-1.432.222-1.621.204-.163.928-.336 2.173-.518l.325-.028c.818-.072 1.483.052 1.996.371.563.339.878.894.945 1.665l.006.072c.046.53.03.896-.05 1.097s-.316.404-.71.608c-.506.311-1.192.505-2.059.581zm11.323 2.431c.746-.065 1.46-.358 2.142-.879 1.019-.818 1.734-1.936 2.143-3.356.226-.748.273-1.869.143-3.362l-.144-1.226c-.257-2.114-.61-3.369-1.056-3.767-.371-.356-.701-.521-.989-.496-.193.017-.378.118-.556.304-.173.234-.119 1.552.164 3.954l.189 1.755.035.393.051.996c0 .558-.114 1.054-.343 1.486-.352.686-.756 1.195-1.212 1.526-.296.22-.577.342-.841.365-1.083.095-1.895-1.849-2.437-5.831l-.315-1.939c-.117-.499-.248-.889-.393-1.167-.122-.281-.259-.463-.412-.547-.174-.058-.367-.041-.577.051-.278.146-.453.501-.525 1.066-.046.587-.007 1.59.118 3.012.208 2.385.608 4.183 1.198 5.393.615 1.208 1.466 1.935 2.555 2.179.371.089.725.118 1.062.089zm8.725-2.33c.554-.048.864-.379.932-.992.021-.317-.002-.849-.067-1.596l-.29-2.487-.738-4.705c-.106-.379-.342-.577-.707-.593l-.108.01c-.313.027-.588.209-.825.546-.213.334-.216 1.694-.008 4.079l.06.687.623 4.206c.199.614.575.896 1.128.848zm5.995.13c.361-.032.661-.204.9-.516.244-.264.351-.565.322-.902a1.08 1.08 0 0 0-.059-.25c-.134-.425-.4-.693-.797-.804-.472-.129-.833-.376-1.083-.743-.203-.371-.367-.999-.493-1.887l-.539-4.504c-.356-3.804-.68-5.839-.97-6.105-.292-.29-.582-.422-.871-.397-.264.023-.478.212-.641.566-.199.503-.184 2.613.044 6.332l.237 2.71c.183 2.096.368 3.378.554 3.847.46 1.101 1.171 1.888 2.134 2.362.48.225.901.322 1.262.29zm7.487.145c.505-.044.957-.145 1.355-.301.469-.187.928-.482 1.378-.885l.919-1.136c.714.957 1.342 1.351 1.885 1.182.569-.147.825-.546.768-1.196-.035-.41-.189-.918-.46-1.525-.35-.673-.711-1.892-1.083-3.655-.371-1.74-.618-3.32-.742-4.741-.059-2.058-.375-3.462-.95-4.213-.308-.191-.595-.288-.862-.289-.24.021-.473.139-.696.352-.246.24-.377.543-.394.908l-.021.584c-.016.099-.007.34.027.726l.096.683c-.005.219.03.483.105.792a4.74 4.74 0 0 1 .073.831c.019.217.048.409.087.575l-1.883.092c-1.306.041-2.251.331-2.834.867a5.31 5.31 0 0 0-1.46 2.021c-.318.805-.443 1.871-.375 3.201a5.93 5.93 0 0 0 .021.654c.057.65.167 1.223.332 1.719.203.662.479 1.184.828 1.566.429.472.868.786 1.318.94.472.129 1.208.222 2.207.28l.361-.032zm-.339-2.628c-.724.039-1.298-.153-1.723-.577-.423-.4-.662-.913-.717-1.539l-.006-.072c-.097-1.666.215-2.81.937-3.432.379-.373.869-.598 1.468-.675l.144-.013c.53-.046.965.085 1.308.395.406.207.715.69.926 1.448.041.191.07.382.087.575.04.458.029.883-.034 1.277-.072.565-.167.998-.286 1.3-.159.402-.412.704-.758.904-.344.224-.793.361-1.346.409zM97.297 82.97c2.117-.185 3.154-1.077 3.112-2.676.011-.147.012-.28.001-.401-.029-.337-.102-.61-.217-.819-.146-.278-.47-.663-.974-1.153-.894-.796-1.761-1.424-2.601-1.884-.921-.55-1.4-1.043-1.438-1.476-.046-.53.183-.963.687-1.298.48-.333 1.086-.471 1.819-.414s1.171-.054 1.316-.334-.023-.678-.504-1.194c-.451-.446-1.075-.646-1.871-.601l-.18.016c-.746.065-1.427.319-2.043.761-.934.689-1.432 1.643-1.496 2.862-.039 1.217.38 2.127 1.257 2.73 2.581 1.789 3.881 2.791 3.9 3.008.025.289-.214.468-.717.536s-1.198.02-2.086-.145c-1.156-.19-1.808-.157-1.955.098-.145.28-.195.539-.15.778.034.385.295.739.784 1.06.792.465 1.875.649 3.249.553l.108-.01zm9.167-1.021c.24-.021.491-.067.751-.139.543-.169 1.023-.502 1.44-1 .42-.474.576-.9.47-1.279-.038-.166-.109-.282-.212-.346-.078-.066-.238-.088-.478-.067-.219-.005-.544.023-.975.085-.693.109-1.152.137-1.374.084-.199-.055-.412-.267-.638-.636-.519-.95-.903-2.008-1.15-3.176l1.897-.348c1.048-.213 1.765-.47 2.151-.771.25-.192.365-.396.346-.613-.012-.145-.085-.284-.218-.418-.037-.142-.179-.239-.425-.29-.225-.077-.531-.111-.918-.102l-1.129-.01-1.23.071-.945.01c.126-3.555-.208-5.298-1.002-5.228-.144.013-.318.113-.519.3-.542.46-.809 1.843-.802 4.148l.102 1.994c.128 1.469.386 2.758.774 3.865.552 1.602 1.23 2.696 2.032 3.281.598.457 1.282.652 2.052.585zm6.388-.778c.192-.017.345-.067.459-.149.182-.137.158-1.252-.074-3.343-.267-2.501-.136-4.2.392-5.095.554-.874 1.585-1.134 3.095-.781 1.584.371 2.343.171 2.275-.6-.065-.747-.803-1.289-2.215-1.627-.594-.142-1.144-.191-1.649-.147a3.78 3.78 0 0 0-1.731.589c-.578.318-.955.581-1.131.791-.153.183-.411.145-.773-.114-.413-.279-.77-.345-1.072-.197-.208.115-.313.44-.315.974l.053.614.409 3.423.809 5.099c.119.257.413.425.881.505.222.053.418.073.587.058zm12.915-1.823a7.17 7.17 0 0 0 1.572-.32c1.012-.356 1.802-.886 2.371-1.591.764-.965 1.138-2.236 1.121-3.812.005-.219-.001-.425-.017-.617-.112-1.277-.508-2.335-1.187-3.173-.949-1.155-2.202-1.761-3.759-1.819-.389-.014-.716-.01-.981.013-.217.019-.384.046-.502.08-.331.102-.743.381-1.236.837-1.34 1.04-2.196 2.341-2.569 3.903-.179.72-.241 1.405-.184 2.055.09.745.309 1.454.659 2.127.715 1.248 1.811 2.002 3.289 2.261a5.52 5.52 0 0 0 1.423.057zm-.221-2.529c-.794.07-1.383-.012-1.767-.246-.386-.257-.669-.718-.848-1.382a5.93 5.93 0 0 1-.093-.647c-.084-.964.235-2.023.959-3.179a2.26 2.26 0 0 1 1.469-1.075 1.86 1.86 0 0 1 .358-.068c.481-.042.952.074 1.413.35.51.295.897.832 1.159 1.61.13.377.211.758.245 1.144s.018.763-.046 1.133c-.104.762-.382 1.32-.836 1.675-.452.379-1.123.608-2.013.686zm16.472 1.834c.505-.044.766-.383.784-1.015l-.035-.397c-.063-.723-.272-1.87-.628-3.44-.4-1.81-.805-3.109-1.213-3.899-.385-.792-.925-1.424-1.621-1.897-.593-.409-1.239-.583-1.937-.522-.625.055-1.296.284-2.013.686-2.127 1.182-3.044 3.447-2.752 6.795l.122.972c.168 1.369.395 2.308.682 2.817.289.533.667.694 1.134.483.302-.148.382-1.029.241-2.643-.261-2.987.088-4.96 1.047-5.917 1.091-1.115 2.017-1.196 2.779-.243.207.152.614 1.475 1.22 3.971l1.148 3.978c.213.224.561.315 1.042.273zm6.865 5.516c2.574-.226 4.253-1.271 5.036-3.136.324-.732.437-1.932.34-3.598l-.054-.614c-.122-1.397-.355-2.675-.699-3.835l-.925-2.686c-.358-1.037-.883-1.913-1.576-2.629-.695-.74-1.338-1.169-1.931-1.287-.544-.122-1.068-.161-1.574-.117a3.99 3.99 0 0 0-2.246.925c-1.04.868-1.726 2.032-2.059 3.494a4.57 4.57 0 0 0-.096 1.392c.059.675.274 1.335.646 1.982.626 1.062 1.461 1.741 2.505 2.038 1.071.319 2.226.084 3.466-.704l1.167-.794c.287.509.525 1.289.714 2.341.165 1.054.101 1.982-.193 2.784-.254.702-.613 1.17-1.077 1.405s-1.063.324-1.795.266c-.512-.028-1.207-.21-2.085-.546-.845-.242-1.307.163-1.385 1.214.008 1.48 1.282 2.182 3.821 2.105zm-1.231-10.342c-.048.004-.097-.004-.148-.023-.363.008-.646-.041-.849-.144-.305-.167-.544-.401-.716-.702-.198-.323-.314-.689-.35-1.098-.08-.915.205-1.681.854-2.296.447-.428.835-.704 1.164-.83.116-.059.234-.093.354-.104.193-.017.39.014.591.094.279.145.551.486.816 1.021.247.609.391 1.143.431 1.601.015.169.016.326.005.473-.052.514-.397 1.006-1.035 1.474-.41.303-.782.481-1.117.535zm13.261 2.552c.265-.023.456-.052.575-.087.282-.098.6-.344.953-.739.396-.472.584-.816.565-1.033-.03-.337-.892-.492-2.587-.465-1.305.041-2.185-.039-2.639-.242-.478-.201-.78-.599-.905-1.195-.077-.333-.059-.541.055-.624s.521-.143 1.221-.18c1.839-.04 3.279-.761 4.32-2.163.633-.808.916-1.585.851-2.332a2.62 2.62 0 0 0-.217-.819c-.321-.627-1.25-.983-2.784-1.067-.389-.014-.765-.006-1.125.026-.987.086-1.799.364-2.437.832-.592.44-1.1 1.152-1.523 2.136s-.653 1.963-.689 2.937c-.018.341-.015.657.01.946.244 2.794 1.94 4.163 5.087 4.106l1.269-.038zm-2.795-6.6c-.337.029-.571-.011-.701-.121a.35.35 0 0 1-.131-.243.49.49 0 0 1 .083-.299c.1-.251.306-.524.62-.819.449-.403 1.035-.637 1.757-.7s1.098.086 1.13.447c.023.265-.298.609-.965 1.031-.642.42-1.239.655-1.793.703zm10.588 6.5c.193-.017.346-.067.46-.149.182-.137.157-1.252-.074-3.343-.267-2.501-.137-4.2.391-5.095.554-.874 1.586-1.134 3.096-.781 1.584.371 2.342.171 2.275-.6-.065-.747-.804-1.289-2.215-1.627-.594-.142-1.144-.191-1.65-.147a3.78 3.78 0 0 0-1.73.589c-.578.318-.955.581-1.131.791-.154.183-.412.145-.774-.114-.412-.279-.769-.345-1.072-.197-.208.115-.313.44-.315.974l.054.614.408 3.423.81 5.099c.119.257.413.425.88.505a1.86 1.86 0 0 0 .587.058zm-69.415 24.941a4.19 4.19 0 0 0 .752-.139c.543-.169 1.023-.502 1.44-1 .419-.474.576-.9.47-1.279-.039-.166-.109-.282-.212-.346-.078-.066-.238-.088-.479-.067-.218-.005-.543.023-.974.085-.694.109-1.152.137-1.375.084-.199-.055-.411-.267-.638-.636-.519-.95-.903-2.008-1.15-3.176l1.897-.348c1.048-.213 1.765-.47 2.151-.771.25-.192.365-.396.346-.613-.013-.144-.085-.284-.218-.418-.037-.142-.179-.239-.426-.29-.225-.077-.531-.111-.918-.102l-1.128-.01-1.23.071-.945.01c.126-3.555-.208-5.298-1.002-5.228-.144.013-.317.113-.519.3-.542.46-.809 1.843-.801 4.148l.102 1.994c.128 1.469.386 2.758.774 3.865.552 1.602 1.23 2.696 2.032 3.281.598.457 1.281.652 2.051.585zm9.911-1.669c.265-.023.456-.052.574-.087.283-.098.6-.344.954-.739.395-.472.583-.816.564-1.032-.029-.337-.891-.492-2.586-.465-1.306.042-2.186-.039-2.64-.242-.478-.201-.779-.599-.904-1.195-.078-.333-.06-.541.054-.624s.521-.143 1.221-.18c1.839-.04 3.279-.761 4.321-2.163.632-.808.916-1.585.851-2.332-.024-.265-.096-.538-.217-.818-.322-.627-1.25-.983-2.785-1.067a9.06 9.06 0 0 0-1.125.026c-.986.086-1.799.364-2.437.832-.591.44-1.099 1.152-1.522 2.136s-.653 1.963-.689 2.937a6.69 6.69 0 0 0 .01.946c.244 2.794 1.939 4.163 5.086 4.106l1.27-.038zm-2.795-6.6c-.337.03-.571-.011-.702-.121-.078-.066-.122-.147-.13-.243s.019-.196.083-.299c.099-.251.306-.524.619-.819.45-.403 1.036-.637 1.757-.7s1.099.086 1.13.447c.024.265-.298.609-.964 1.031-.642.42-1.24.655-1.793.703zm11.706 7.641c.505-.045 1.202-.251 2.091-.62.891-.345 1.403-.596 1.534-.753.36-.323.66-.774.9-1.353.287-.608.416-1.214.387-1.818.018-.074.023-.148.017-.22-.052-.602-.219-1.401-.5-2.396-.477-1.852-1.042-3.186-1.695-4.002-.68-.839-1.65-1.263-2.912-1.274l-.614.054c-.433.038-.803.107-1.109.206-.449.136-.838.401-1.167.794-.395.472-.634.929-.717 1.374-.106.446-.063.794.128 1.045.385.525.914.333 1.586-.576.418-.498.89-.782 1.417-.852.553-.048 1.005.13 1.356.537.248.342.403.584.463.724s.033.24-.083.299-.342.103-.679.132c-1.155.101-2.192.714-3.112 1.838-.896 1.122-1.293 2.274-1.19 3.454.093 1.06.507 1.91 1.241 2.549.737.664 1.623.95 2.658.86zm-.287-2.451c-.169.015-.315.003-.44-.034-.399-.135-.653-.538-.76-1.208l-.013-.145c-.025-.289.002-.534.082-.735.123-.254.372-.591.748-1.012.621-.661 1.148-1.011 1.581-1.049.385-.034.696.194.932.683.231.417.373.938.428 1.565.032.361-.029.634-.183.817s-.51.409-1.068.676c-.535.265-.971.413-1.307.442zm14.54-.291c.553-.048.91-.274 1.068-.676.135-.4.148-1.227.038-2.479-.113-1.301-.102-2.418.035-3.353.112-.932.332-1.473.658-1.623.254-.144.643.004 1.166.444.521.416.903.904 1.146 1.465.152.351.43 1.31.834 2.876.572 2.11 1.339 2.978 2.3 2.602.398-.156.621-.382.668-.677.018-.074.019-.196.005-.365-.04-.458-.221-1.279-.543-2.465-.404-1.567-.795-2.71-1.173-3.429-.299-.653-.865-1.308-1.699-1.963-.809-.657-1.495-1.022-2.059-1.094-.538-.05-1.11.061-1.717.332-.582.269-.988.621-1.217 1.053l-.409.728-1.22-1.058c-.501-.466-.903-.758-1.204-.878-.299-.095-.725-.118-1.279-.07s-.957.145-1.211.288c-.276.17-.633.529-1.07 1.077-1.201 1.513-1.708 3.342-1.521 5.486.032.361.09.745.174 1.15.199 1.172.425 1.953.677 2.344.255.415.595.567 1.022.457.287-.049.454-.21.503-.481.047-.295.065-1.062.054-2.299-.049-1.671.087-3.03.408-4.077.415-1.347.958-1.795 1.628-1.344.259.196.636.903 1.131 2.122.52 1.241.913 2.408 1.179 3.501.204.953.418 1.602.642 1.946.248.342.577.496.986.46zm13.469-.488c2.117-.186 3.154-1.077 3.112-2.676a2.44 2.44 0 0 0 .001-.401c-.029-.337-.102-.61-.217-.818-.146-.278-.47-.663-.974-1.153-.893-.796-1.76-1.424-2.601-1.884-.921-.55-1.4-1.043-1.438-1.476-.046-.53.183-.963.687-1.298.48-.333 1.086-.471 1.818-.414s1.171-.054 1.317-.334-.023-.678-.505-1.194c-.451-.446-1.075-.646-1.871-.601l-.18.016a4.05 4.05 0 0 0-2.043.761c-.934.689-1.432 1.643-1.495 2.862-.04 1.217.379 2.127 1.256 2.73 2.581 1.789 3.881 2.791 3.9 3.008.025.289-.214.468-.717.536s-1.198.02-2.085-.145c-1.157-.19-1.808-.157-1.956.098-.145.28-.195.539-.15.778.034.385.295.739.784 1.06.792.465 1.875.649 3.248.553l.109-.01z" stroke="#002e8c" stroke-width=".6"/></svg>