<svg width="179" height="104" fill="none" xmlns="http://www.w3.org/2000/svg"><path d="M12.427 2.209c-.564-.08-1.129.533-1.263 1.369L8.977 17.202c-.133.836.214 1.579.778 1.66.564.08 1.13-.533 1.264-1.37l1.943-12.11 8.165 1.163c.564.08 1.13-.533 1.263-1.369.135-.836-.214-1.579-.777-1.66L12.427 2.21zm12.437 25.4-.832 1.085c.016.026.032.05.049.074l.783-1.16zm28.659 14.719-.788 1.152.788-1.152zm.544 13.81-.777 1.166.777-1.166zm26.046 19.919c.537.206 1.149-.287 1.367-1.101.218-.814-.04-1.642-.577-1.848l-.79 2.949zM11.29 4.69c1.743 3.718 6.784 14.099 12.741 24.003l1.662-2.17c-5.895-9.8-10.892-20.091-12.616-23.769L11.29 4.691zM54.31 41.175c-1.087-1.555-2.366-2.462-3.58-2.525-.616-.031-1.26.154-1.839.665-.596.527-1.039 1.326-1.283 2.29-.463 1.826-.191 4.098.672 6.588.884 2.552 2.48 5.603 5.01 9.11l1.555-2.331c-2.446-3.391-3.898-6.22-4.663-8.43-.787-2.272-.768-3.646-.614-4.25.063-.253.146-.366.225-.436.096-.086.279-.181.575-.166.606.032 1.487.531 2.367 1.79l1.575-2.305zm-1.02 16.129c7.117 9.867 17.357 15.114 26.823 18.753l.79-2.949c-9.416-3.62-19.276-8.735-26.058-18.137l-1.555 2.333zM24.08 28.768c6.758 9.526 14.95 14.552 21.03 16.566 3.018 1 5.606 1.288 7.28.935a3.92 3.92 0 0 0 1.199-.445c.347-.206.766-.55 1.066-1.147a3.285 3.285 0 0 0 .28-2.074 3.703 3.703 0 0 0-.626-1.428l-1.575 2.305c.168.24.182.346.173.3a1.148 1.148 0 0 1 .112-.663c.092-.183.156-.172.013-.087-.126.075-.34.163-.659.23-1.3.274-3.61.073-6.537-.897-5.81-1.925-13.696-6.759-20.19-15.913l-1.566 2.318z" fill="#002E8C"/><path d="M97.558 63.904c1.18-.103 2.152-.48 2.92-1.13.789-.676 1.285-1.241 1.488-1.696.229-.433.301-1.13.217-2.094a5.338 5.338 0 0 0-.704-2.232c-.376-.696-.788-1.109-1.236-1.24-.25-.099-.551-.206-.9-.321.363-.275.724-.585 1.082-.932.919-1.416 1.044-2.895.376-4.439-1.06-2.407-3.178-3.484-6.356-3.23-.938.082-1.549.172-1.831.27-.28.121-.607.405-.98.85-.33.393-.525.799-.585 1.217-.063.393-.096 1.258-.1 2.594.003.873.048 1.804.134 2.791.103 1.18.263 2.453.48 3.818.362 2.493.695 3.944.998 4.355.655.84 1.873 1.316 3.652 1.427.488.03.936.028 1.345-.008zm-3.433-8.911a5.892 5.892 0 0 1-.653.02 142.648 142.648 0 0 1-.245-3.219c-.067-1.038.044-1.848.333-2.432.319-.513.839-.802 1.56-.865.265-.023.545-.011.84.036.713.107 1.35.452 1.91 1.034.581.556.9 1.147.954 1.773.058.942-.462 1.789-1.56 2.54a6.475 6.475 0 0 1-3.14 1.113zm2.86 6.521c-.89.078-1.552-.01-1.986-.262a1.476 1.476 0 0 1-.602-.64c-.119-.256-.206-.698-.26-1.324-.079-.891-.005-1.432.221-1.621.204-.164.928-.337 2.173-.519l.325-.028c.818-.072 1.484.052 1.997.371.563.34.878.894.945 1.665l.006.072c.047.53.03.896-.05 1.097-.079.201-.316.404-.71.609-.506.311-1.192.505-2.058.58zm11.324 2.431c.746-.065 1.46-.358 2.142-.88 1.019-.817 1.734-1.935 2.143-3.355.226-.748.273-1.868.143-3.362a22.613 22.613 0 0 0-.144-1.225c-.257-2.114-.61-3.37-1.056-3.767-.371-.356-.701-.522-.989-.496-.193.017-.378.118-.556.303-.173.234-.119 1.552.164 3.955.081.683.144 1.268.189 1.754l.035.393c.034.43.052.763.051.996 0 .559-.114 1.054-.343 1.487-.352.686-.756 1.195-1.212 1.526-.296.22-.577.342-.841.365-1.083.095-1.895-1.849-2.437-5.83a61.397 61.397 0 0 0-.315-1.94c-.117-.499-.248-.888-.393-1.166-.122-.281-.259-.463-.412-.547-.174-.058-.367-.04-.577.05-.278.146-.453.501-.525 1.066-.046.587-.007 1.59.118 3.012.208 2.385.608 4.182 1.198 5.393.615 1.208 1.466 1.935 2.555 2.18.371.088.725.118 1.062.088zm8.725-2.33c.554-.048.864-.379.932-.992.021-.317-.002-.849-.067-1.596-.057-.65-.153-1.48-.29-2.487-.285-2.426-.531-3.995-.738-4.705-.106-.379-.342-.577-.707-.593l-.108.01c-.313.026-.588.208-.825.545-.213.334-.216 1.694-.008 4.078l.06.687c.216 2.19.423 3.592.623 4.206.199.613.575.896 1.128.847zm5.995.13c.361-.031.661-.203.9-.515.244-.264.351-.565.322-.902a1.082 1.082 0 0 0-.059-.25c-.134-.425-.4-.693-.797-.804-.472-.129-.833-.376-1.083-.743-.203-.37-.367-1-.493-1.886-.15-.885-.329-2.387-.539-4.504-.356-3.804-.68-5.84-.97-6.105-.292-.29-.582-.423-.871-.397-.264.023-.478.211-.641.566-.199.503-.184 2.613.044 6.331l.237 2.71c.183 2.096.368 3.379.554 3.848.46 1.1 1.171 1.888 2.134 2.362.48.224.901.321 1.262.29zm7.487.146a4.858 4.858 0 0 0 1.355-.301c.469-.187.928-.482 1.378-.885.417-.498.723-.877.919-1.137.714.957 1.342 1.351 1.885 1.182.569-.147.825-.545.768-1.196-.035-.41-.189-.918-.46-1.525-.35-.673-.711-1.892-1.083-3.655-.371-1.74-.618-3.32-.742-4.742-.059-2.058-.375-3.462-.95-4.213-.308-.191-.595-.288-.862-.289-.24.021-.473.139-.696.353-.246.24-.377.543-.394.908-.023.293-.03.488-.021.584-.016.099-.007.34.027.726.047.263.079.491.096.684-.005.219.03.483.105.792.052.31.076.588.073.83.019.218.048.41.087.576-.821.047-1.448.078-1.883.092-1.306.041-2.251.33-2.834.867a5.31 5.31 0 0 0-1.46 2.021c-.318.805-.443 1.872-.375 3.2a7.54 7.54 0 0 0 .353 2.372c.203.663.479 1.185.828 1.567.429.472.868.786 1.318.94.472.129 1.208.222 2.207.28l.361-.031zm-.339-2.628c-.724.039-1.298-.154-1.723-.578-.423-.4-.662-.913-.717-1.54l-.006-.071c-.097-1.667.215-2.81.937-3.432.379-.373.869-.598 1.468-.675l.144-.013c.53-.046.965.086 1.308.396.406.207.715.69.926 1.448a5.213 5.213 0 0 1 .053 1.852c-.072.565-.167.998-.286 1.3a1.748 1.748 0 0 1-.758.903c-.344.225-.793.361-1.346.41zM97.297 82.97c2.117-.186 3.154-1.078 3.112-2.676.011-.147.012-.28.001-.4-.029-.338-.102-.61-.217-.82-.146-.278-.47-.662-.974-1.152-.893-.795-1.76-1.423-2.6-1.884-.922-.55-1.401-1.042-1.439-1.476-.046-.53.183-.963.687-1.298.48-.333 1.086-.471 1.818-.414.733.057 1.171-.054 1.317-.334.145-.28-.023-.678-.505-1.194-.45-.446-1.075-.646-1.87-.6l-.181.015a4.048 4.048 0 0 0-2.043.762c-.934.688-1.432 1.642-1.495 2.862-.04 1.217.38 2.127 1.257 2.73 2.58 1.788 3.88 2.791 3.9 3.008.024.289-.215.468-.718.536s-1.198.02-2.085-.145c-1.156-.19-1.808-.157-1.956.098-.145.28-.195.54-.15.778.034.386.295.739.784 1.06.792.465 1.875.65 3.248.553l.109-.01zm9.167-1.022c.24-.02.491-.067.751-.138.543-.17 1.023-.503 1.44-1 .42-.474.576-.9.47-1.28-.038-.166-.109-.281-.212-.345-.078-.066-.238-.088-.478-.067a6.415 6.415 0 0 0-.975.085c-.693.11-1.152.137-1.374.084-.199-.056-.412-.268-.638-.636a11.58 11.58 0 0 1-1.15-3.176c.833-.17 1.466-.286 1.897-.349 1.048-.213 1.765-.47 2.151-.77.25-.192.365-.397.346-.613-.012-.145-.085-.284-.218-.418-.037-.143-.179-.24-.425-.29-.225-.078-.531-.112-.918-.102-.39-.015-.766-.018-1.129-.01-.387.009-.797.033-1.23.07-.435.014-.75.018-.945.01.126-3.554-.208-5.297-1.002-5.228-.144.013-.318.113-.519.3-.542.46-.809 1.844-.802 4.149.013.703.047 1.367.102 1.994.128 1.47.386 2.757.774 3.864.552 1.603 1.23 2.696 2.032 3.281.598.458 1.282.653 2.052.585zm6.388-.778a.905.905 0 0 0 .459-.15c.182-.137.158-1.251-.074-3.343-.267-2.5-.136-4.2.392-5.095.554-.874 1.585-1.134 3.095-.78 1.584.37 2.343.17 2.275-.6-.065-.748-.803-1.29-2.215-1.627a5.161 5.161 0 0 0-1.649-.147 3.78 3.78 0 0 0-1.731.588c-.578.318-.955.582-1.131.791-.153.184-.411.146-.773-.114-.413-.28-.77-.345-1.072-.197-.208.115-.313.44-.315.974l.053.614c.064.723.2 1.864.409 3.423.389 3.073.659 4.773.809 5.1.119.257.413.425.881.505.222.054.418.073.587.058zm12.915-1.823a7.172 7.172 0 0 0 1.572-.32c1.012-.355 1.802-.886 2.371-1.59.764-.966 1.138-2.237 1.121-3.813a5.855 5.855 0 0 0-.017-.617c-.112-1.277-.508-2.335-1.187-3.174-.949-1.154-2.202-1.76-3.759-1.819a8.088 8.088 0 0 0-.981.014 2.718 2.718 0 0 0-.502.08c-.331.102-.743.38-1.236.836-1.34 1.04-2.196 2.341-2.569 3.903a6.237 6.237 0 0 0-.184 2.055c.09.745.309 1.454.659 2.127.715 1.248 1.811 2.002 3.289 2.26.467.081.942.1 1.423.058zm-.221-2.53c-.794.07-1.383-.012-1.767-.245-.386-.258-.669-.718-.848-1.382a5.93 5.93 0 0 1-.093-.647c-.084-.964.235-2.024.959-3.18a2.261 2.261 0 0 1 1.469-1.075c.119-.034.238-.057.358-.067.481-.043.952.074 1.413.35.51.294.897.83 1.159 1.609.13.377.211.758.245 1.143.034.386.018.764-.046 1.133-.104.762-.382 1.32-.836 1.676-.452.379-1.123.608-2.013.686zm16.472 1.835c.505-.044.766-.383.784-1.016l-.035-.397c-.063-.723-.272-1.87-.628-3.44-.4-1.81-.805-3.11-1.213-3.9a4.763 4.763 0 0 0-1.621-1.896 2.877 2.877 0 0 0-1.937-.523c-.625.055-1.296.284-2.013.686-2.127 1.182-3.044 3.447-2.752 6.796.028.313.068.637.122.972.168 1.369.395 2.308.682 2.817.289.533.667.694 1.134.483.302-.148.382-1.029.241-2.643-.261-2.987.088-4.96 1.047-5.917 1.091-1.115 2.017-1.196 2.779-.244.207.152.614 1.476 1.22 3.971.628 2.47 1.01 3.796 1.148 3.978.213.224.561.315 1.042.273zm6.865 5.516c2.574-.226 4.253-1.271 5.036-3.136.324-.732.437-1.932.34-3.598l-.054-.614c-.122-1.397-.355-2.676-.699-3.835-.339-1.111-.648-2.007-.925-2.686-.358-1.037-.883-1.913-1.576-2.63-.695-.74-1.338-1.169-1.931-1.287a5.118 5.118 0 0 0-1.574-.117 3.99 3.99 0 0 0-2.246.925c-1.04.868-1.726 2.033-2.059 3.494a4.57 4.57 0 0 0-.096 1.392c.059.675.274 1.335.646 1.982.626 1.062 1.461 1.741 2.505 2.038 1.071.32 2.226.085 3.466-.704.528-.337.917-.602 1.167-.794.287.51.525 1.29.714 2.34.165 1.055.101 1.983-.193 2.785-.254.702-.613 1.17-1.077 1.405-.465.235-1.063.324-1.795.267-.512-.028-1.207-.21-2.085-.546-.845-.242-1.307.163-1.385 1.214.008 1.48 1.282 2.181 3.821 2.105zm-1.231-10.343a.325.325 0 0 1-.148-.023c-.363.007-.646-.04-.849-.144a1.816 1.816 0 0 1-.716-.702 2.482 2.482 0 0 1-.35-1.098c-.08-.916.205-1.68.854-2.296.447-.428.835-.704 1.164-.83a.964.964 0 0 1 .354-.104c.193-.017.39.014.591.094.279.145.551.486.816 1.02.247.61.391 1.144.431 1.602.015.168.016.326.005.472-.052.515-.397 1.006-1.035 1.475-.41.303-.782.48-1.117.534zm13.261 2.553c.265-.023.456-.052.575-.087.282-.098.6-.344.953-.739.396-.472.584-.816.565-1.033-.03-.337-.892-.492-2.587-.465-1.305.042-2.185-.039-2.639-.242-.478-.2-.78-.6-.905-1.195-.077-.333-.059-.541.055-.624.114-.083.521-.142 1.221-.18 1.839-.04 3.279-.76 4.32-2.162.633-.808.916-1.585.851-2.332a2.621 2.621 0 0 0-.217-.819c-.321-.627-1.25-.982-2.784-1.066a9.034 9.034 0 0 0-1.125.025c-.987.087-1.799.364-2.437.833-.592.44-1.1 1.152-1.523 2.136-.423.983-.653 1.962-.689 2.937-.018.34-.015.656.01.945.244 2.795 1.94 4.163 5.087 4.106.509.004.933-.009 1.269-.038zm-2.795-6.6c-.337.029-.571-.011-.701-.121a.35.35 0 0 1-.131-.244.49.49 0 0 1 .083-.298c.1-.252.306-.525.62-.82.449-.403 1.035-.636 1.757-.7.722-.063 1.098.087 1.13.448.023.265-.298.609-.965 1.031-.642.42-1.239.655-1.793.703zm10.588 6.5a.906.906 0 0 0 .46-.15c.182-.137.157-1.252-.074-3.343-.267-2.501-.137-4.2.391-5.096.554-.873 1.586-1.134 3.096-.78 1.584.37 2.342.17 2.275-.6-.065-.747-.804-1.29-2.215-1.627a5.165 5.165 0 0 0-1.65-.147 3.78 3.78 0 0 0-1.73.589c-.578.318-.955.581-1.131.79-.154.184-.412.146-.774-.113-.412-.28-.769-.346-1.072-.198-.208.116-.313.44-.315.974l.054.615c.063.722.199 1.864.408 3.423.39 3.073.66 4.773.81 5.1.119.256.413.424.88.505.223.053.419.073.587.058zm-69.415 24.941a4.19 4.19 0 0 0 .752-.139c.543-.169 1.023-.502 1.44-1 .419-.474.576-.9.47-1.279-.039-.166-.109-.282-.212-.346-.078-.066-.238-.088-.479-.067a6.414 6.414 0 0 0-.974.085c-.694.11-1.152.138-1.375.085-.198-.056-.41-.268-.637-.637-.52-.95-.903-2.008-1.15-3.176.833-.17 1.466-.286 1.897-.348 1.048-.213 1.765-.47 2.151-.77.25-.193.365-.397.346-.614a.683.683 0 0 0-.218-.418c-.037-.142-.179-.239-.426-.29-.225-.077-.531-.111-.918-.102-.389-.014-.765-.018-1.128-.01-.387.01-.797.033-1.23.071-.435.014-.75.017-.945.01.126-3.555-.208-5.297-1.002-5.228-.145.013-.318.113-.52.3-.541.46-.808 1.843-.8 4.149.012.702.046 1.367.1 1.993.129 1.47.387 2.758.775 3.865.552 1.602 1.23 2.696 2.032 3.281.598.457 1.282.652 2.051.585zm9.911-1.67c.265-.023.456-.051.574-.086.283-.098.6-.344.954-.739.395-.472.583-.816.564-1.032-.029-.338-.891-.493-2.586-.466-1.306.042-2.186-.039-2.64-.242-.478-.2-.779-.6-.904-1.195-.078-.333-.06-.541.054-.624.114-.083.521-.143 1.221-.18 1.839-.04 3.279-.76 4.321-2.162.632-.808.916-1.585.851-2.332a2.676 2.676 0 0 0-.217-.819c-.322-.627-1.25-.983-2.785-1.066a9.058 9.058 0 0 0-1.125.025c-.986.087-1.799.364-2.437.833-.591.44-1.099 1.152-1.522 2.136-.423.983-.653 1.962-.689 2.936a6.69 6.69 0 0 0 .01.946c.244 2.795 1.939 4.163 5.086 4.106a13.8 13.8 0 0 0 1.27-.038zm-2.795-6.6c-.337.03-.571-.01-.702-.12a.348.348 0 0 1-.13-.244.477.477 0 0 1 .083-.298c.099-.252.306-.525.619-.82.45-.403 1.036-.636 1.757-.7.722-.063 1.099.087 1.13.448.024.265-.298.609-.964 1.031-.642.42-1.24.655-1.793.703zm11.706 7.641c.505-.045 1.202-.251 2.091-.62.891-.346 1.403-.597 1.534-.754.36-.323.66-.774.9-1.353.287-.608.416-1.214.387-1.818a.687.687 0 0 0 .017-.22c-.052-.602-.219-1.4-.5-2.396-.477-1.851-1.042-3.185-1.695-4.002-.68-.839-1.65-1.263-2.912-1.274l-.614.053a5.037 5.037 0 0 0-1.109.207 2.427 2.427 0 0 0-1.167.794c-.395.472-.634.93-.717 1.374-.106.446-.063.794.128 1.044.385.525.914.333 1.586-.576.418-.497.89-.782 1.417-.852.553-.048 1.005.13 1.356.537.248.342.403.583.463.724.061.14.033.24-.083.298-.116.059-.342.103-.679.133-1.155.1-2.192.714-3.112 1.838-.896 1.122-1.293 2.273-1.19 3.454.093 1.06.507 1.91 1.241 2.55.737.663 1.623.949 2.658.859zm-.287-2.451a1.174 1.174 0 0 1-.44-.034c-.399-.135-.653-.538-.76-1.208l-.013-.145c-.025-.289.002-.534.082-.735.123-.254.372-.591.748-1.012.621-.662 1.148-1.011 1.581-1.05.385-.033.696.195.932.684.231.417.373.938.428 1.565.032.36-.029.633-.183.817-.154.183-.51.408-1.068.676-.535.265-.971.412-1.307.442zm14.54-.29c.553-.05.91-.275 1.068-.677.135-.4.148-1.226.038-2.48-.113-1.3-.102-2.417.035-3.352.112-.932.332-1.473.658-1.623.254-.144.643.004 1.166.444.521.415.903.904 1.146 1.465.152.35.43 1.31.834 2.876.572 2.11 1.339 2.978 2.3 2.603.398-.157.621-.383.668-.678.018-.074.019-.196.005-.365-.04-.457-.221-1.279-.543-2.464-.404-1.567-.795-2.71-1.173-3.43-.299-.653-.865-1.307-1.699-1.963-.809-.657-1.495-1.022-2.059-1.093-.538-.05-1.11.06-1.717.332-.582.27-.988.62-1.217 1.053-.211.359-.347.601-.409.728a37.91 37.91 0 0 1-1.22-1.058c-.501-.466-.903-.759-1.204-.878-.299-.095-.725-.118-1.279-.07-.553.048-.957.145-1.211.288-.276.17-.633.529-1.07 1.077-1.201 1.513-1.708 3.341-1.521 5.486.032.36.09.744.174 1.15.199 1.171.425 1.953.677 2.343.255.415.595.567 1.022.457.287-.05.454-.21.503-.481.047-.296.065-1.062.054-2.299-.049-1.67.087-3.03.408-4.077.415-1.347.958-1.795 1.628-1.344.259.195.636.903 1.131 2.122.52 1.24.913 2.408 1.179 3.501.204.953.418 1.602.642 1.947.248.342.577.495.986.46zm13.469-.489c2.117-.185 3.154-1.077 3.112-2.675.011-.147.012-.28.001-.401-.029-.337-.102-.61-.217-.818-.146-.279-.47-.663-.974-1.153-.893-.796-1.76-1.424-2.601-1.884-.921-.55-1.4-1.043-1.438-1.476-.046-.53.183-.963.687-1.298.48-.334 1.086-.472 1.818-.415.733.058 1.171-.053 1.317-.333.145-.28-.023-.678-.505-1.194-.451-.446-1.075-.646-1.871-.6l-.18.015a4.05 4.05 0 0 0-2.043.761c-.934.69-1.432 1.643-1.495 2.862-.04 1.218.379 2.127 1.256 2.73 2.581 1.789 3.881 2.792 3.9 3.009.025.289-.214.467-.717.536-.503.068-1.198.02-2.085-.145-1.157-.19-1.808-.158-1.956.098-.145.28-.195.54-.15.778.034.385.295.739.784 1.06.792.465 1.875.649 3.248.553l.109-.01z" fill="#002E8C" stroke="#002E8C" stroke-width=".6"/></svg>