<!-- Generated by IcoMoon.io -->
<svg version="1.1" xmlns="http://www.w3.org/2000/svg" width="32" height="32" viewBox="0 0 32 32">
<title>star</title>
<path fill="#f5a9ab" d="M8.503 31.392c0.346-0.398 0.667-0.817 1.005-1.22 1.499-1.786 3.216-3.34 5.058-4.694 0.152 0.011 0.252-0.009 0.314 0.027 1.071 0.613 2.134 1.241 3.207 1.85 0.589 0.334 1.195 0.643 1.792 0.963 1.090 0.587 2.209 1.142 3.119 1.967 0.676 0.613 1.645 0.597 2.428 0.971 0.062 0.029 0.165-0.009 0.249-0.025 0.363-0.070 0.621-0.431 0.526-0.75-0.033-0.113-0.103-0.212-0.146-0.322-0.891-2.298-1.706-4.624-2.247-7.060-0.122-0.548-0.243-1.096-0.394-1.634-0.224-0.799-0.175-1.005 0.566-1.622 1.259-1.046 2.499-2.105 3.497-3.41 0.397-0.519 0.85-1.004 1.305-1.481 0.271-0.283 0.588-0.526 0.898-0.771 0.239-0.189 0.498-0.353 0.79-0.556-0.013-0.201-0.001-0.288-0.027-0.359-0.335-0.954-0.678-1.153-1.743-1.026-0.297 0.035-0.594 0.049-0.889 0.084-2.071 0.248-4.142 0.286-6.214 0.733-1.003 0.216-1.241 0.023-1.527-0.891-0.498-1.594-1.016-3.18-1.526-4.769-0.038-0.114-0.070-0.23-0.115-0.339-0.656-1.616-1.307-3.234-1.979-4.842-0.119-0.284-0.279-0.583-0.512-0.768-0.557-0.441-1.253-0.322-1.912-0.028-0.52 0.232-0.366 0.706-0.41 1.108-0.062 0.576-0.181 1.153-0.251 1.728-0.070 0.573-0.015 1.163-0.186 1.713-0.194 0.627-0.228 1.226-0.243 1.843-0.011 0.411 0.007 0.841-0.122 1.234-0.232 0.701-0.27 1.393-0.325 2.091-0.017 0.206-0.035 0.415-0.078 0.619-0.125 0.594-0.517 0.981-1.088 1.2-0.202 0.078-0.417 0.131-0.627 0.163-2.154 0.332-4.308 0.709-6.465 0.795-0.928 0.038-1.853 0.037-2.781 0.067-0.463 0.016-0.735 0.222-0.891 0.632-0.12 0.314-0.035 0.52 0.405 0.751 0.493 0.26 1.022 0.459 1.519 0.713 1.032 0.53 2.063 1.064 3.075 1.623 1.084 0.6 2.101 1.288 3.007 2.118 0.276 0.253 0.466 0.528 0.383 0.947-0.254 1.277-0.447 2.561-0.774 3.827-0.284 1.096-0.714 2.172-1.092 3.253-0.321 0.92-0.601 1.85-1.051 2.739-0.265 0.523-0.1 0.967 0.381 1.231 0.615 0.339 1.592 0.148 2.089-0.424z"></path>
</svg>
