<!-- Generated by IcoMoon.io -->
<svg version="1.1" xmlns="http://www.w3.org/2000/svg" width="32" height="32" viewBox="0 0 32 32">
<title>star-1</title>
<path fill="#f5a9ab" d="M2.676 21.236c0.52-0.091 1.032-0.215 1.549-0.315 2.289-0.445 4.601-0.572 6.885-0.465 0.111 0.104 0.201 0.152 0.227 0.219 0.446 1.151 0.878 2.307 1.328 3.456 0.247 0.63 0.524 1.251 0.787 1.877 0.478 1.142 0.998 2.278 1.186 3.492 0.14 0.902 0.903 1.499 1.276 2.283 0.030 0.062 0.134 0.097 0.209 0.137 0.327 0.174 0.754 0.056 0.881-0.251 0.045-0.108 0.053-0.23 0.089-0.342 0.754-2.346 1.584-4.667 2.697-6.901 0.251-0.503 0.501-1.005 0.722-1.518 0.329-0.762 0.497-0.892 1.461-0.904 1.636-0.021 3.267-0.063 4.863-0.449 0.635-0.154 1.293-0.246 1.946-0.329 0.389-0.049 0.788-0.039 1.183-0.034 0.305 0.004 0.609 0.039 0.964 0.065 0.116-0.164 0.18-0.225 0.205-0.296 0.34-0.952 0.198-1.323-0.709-1.894-0.253-0.16-0.492-0.336-0.744-0.494-1.765-1.111-3.399-2.384-5.29-3.341-0.916-0.463-0.979-0.763-0.626-1.654 0.616-1.552 1.211-3.111 1.815-4.666 0.043-0.112 0.090-0.223 0.124-0.336 0.507-1.669 1.020-3.336 1.509-5.009 0.087-0.296 0.15-0.628 0.085-0.92-0.156-0.694-0.771-1.039-1.468-1.225-0.55-0.147-0.729 0.319-1.016 0.604-0.411 0.409-0.866 0.782-1.282 1.185-0.415 0.401-0.743 0.894-1.222 1.215-0.545 0.366-0.949 0.81-1.349 1.279-0.267 0.312-0.524 0.658-0.872 0.882-0.621 0.399-1.086 0.913-1.569 1.421-0.143 0.15-0.288 0.3-0.45 0.432-0.471 0.383-1.019 0.437-1.601 0.248-0.206-0.067-0.406-0.161-0.59-0.268-1.883-1.097-3.794-2.16-5.524-3.451-0.745-0.555-1.463-1.138-2.203-1.698-0.37-0.279-0.711-0.29-1.090-0.070-0.291 0.169-0.355 0.381-0.158 0.838 0.22 0.512 0.506 1 0.732 1.51 0.469 1.061 0.934 2.125 1.368 3.197 0.465 1.149 0.822 2.323 1.004 3.539 0.056 0.371 0.030 0.704-0.298 0.977-1.001 0.833-1.959 1.709-3.010 2.486-0.911 0.673-1.922 1.239-2.896 1.841-0.829 0.513-1.631 1.060-2.54 1.467-0.535 0.24-0.686 0.689-0.478 1.197 0.265 0.651 1.144 1.117 1.891 0.985z"></path>
</svg>
